<mxfile host="Electron" modified="2024-03-07T05:53:32.066Z" agent="Mozilla/5.0 (Windows NT 10.0; Win64; x64) AppleWebKit/537.36 (KHTML, like Gecko) draw.io/21.2.8 Chrome/112.0.5615.165 Electron/24.2.0 Safari/537.36" etag="5I5FNJ7vogqygPsh8n5o" version="21.2.8" type="device">
  <diagram id="czqmMeG2DLdh9qgjmsZn" name="Page-1">
    <mxGraphModel dx="2049" dy="1606" grid="1" gridSize="10" guides="1" tooltips="1" connect="1" arrows="1" fold="1" page="0" pageScale="1" pageWidth="827" pageHeight="1169" math="0" shadow="0">
      <root>
        <mxCell id="0" />
        <mxCell id="1" parent="0" />
        <mxCell id="sS3E-fsOJR8goYJxDTn5-2" value="AWS Cloud" style="points=[[0,0],[0.25,0],[0.5,0],[0.75,0],[1,0],[1,0.25],[1,0.5],[1,0.75],[1,1],[0.75,1],[0.5,1],[0.25,1],[0,1],[0,0.75],[0,0.5],[0,0.25]];outlineConnect=0;gradientColor=none;html=1;whiteSpace=wrap;fontSize=10;fontStyle=0;shape=mxgraph.aws4.group;grIcon=mxgraph.aws4.group_aws_cloud_alt;strokeColor=default;fillColor=none;verticalAlign=top;align=left;spacingLeft=30;fontColor=#232F3E;dashed=0;labelBackgroundColor=none;container=1;pointerEvents=0;collapsible=0;recursiveResize=0;" parent="1" vertex="1">
          <mxGeometry x="130" width="1100" height="470" as="geometry" />
        </mxCell>
        <mxCell id="sS3E-fsOJR8goYJxDTn5-7" value="" style="rounded=0;whiteSpace=wrap;html=1;fontSize=10;fillColor=#fff2cc;strokeColor=none;gradientColor=#ffd966;" parent="sS3E-fsOJR8goYJxDTn5-2" vertex="1">
          <mxGeometry width="1100" height="340" as="geometry" />
        </mxCell>
        <mxCell id="sS3E-fsOJR8goYJxDTn5-45" value="" style="rounded=0;whiteSpace=wrap;html=1;fillColor=#f8cecc;strokeColor=none;gradientColor=#ffffff;" parent="sS3E-fsOJR8goYJxDTn5-2" vertex="1">
          <mxGeometry x="730" y="340" width="370" height="130" as="geometry" />
        </mxCell>
        <mxCell id="MI_O_WjOlExlFQBH1zT7-30" style="edgeStyle=orthogonalEdgeStyle;rounded=0;orthogonalLoop=1;jettySize=auto;html=1;" edge="1" parent="sS3E-fsOJR8goYJxDTn5-2" source="MI_O_WjOlExlFQBH1zT7-1" target="MI_O_WjOlExlFQBH1zT7-2">
          <mxGeometry relative="1" as="geometry">
            <Array as="points">
              <mxPoint x="73" y="10" />
              <mxPoint x="495" y="10" />
            </Array>
          </mxGeometry>
        </mxCell>
        <mxCell id="MI_O_WjOlExlFQBH1zT7-31" style="edgeStyle=orthogonalEdgeStyle;rounded=0;orthogonalLoop=1;jettySize=auto;html=1;" edge="1" parent="sS3E-fsOJR8goYJxDTn5-2" source="MI_O_WjOlExlFQBH1zT7-1" target="MI_O_WjOlExlFQBH1zT7-22">
          <mxGeometry relative="1" as="geometry" />
        </mxCell>
        <mxCell id="MI_O_WjOlExlFQBH1zT7-1" value="" style="shape=image;verticalLabelPosition=bottom;labelBackgroundColor=default;verticalAlign=top;aspect=fixed;imageAspect=0;image=data:image/svg+xml,PHN2ZyB4bWxucz0iaHR0cDovL3d3dy53My5vcmcvMjAwMC9zdmciIHdpZHRoPSIyNTUuODIyMjM1MTA3NDIxODgiIHZpZXdCb3g9IjAuMTYzNzk2Mjc1ODU0MTEwNzIgMC40MjA2NjA0OTU3NTgwNTY2NCAyNTUuODIyMjM1MTA3NDIxODggMjM1LjY1NDE0NDI4NzEwOTM4IiBwcmVzZXJ2ZUFzcGVjdFJhdGlvPSJ4TWlkWU1pZCIgaGVpZ2h0PSIyMzUuNjU0MTQ0Mjg3MTA5MzgiPjxwYXRoIGZpbGw9IiNlMjQzMjkiIGQ9Im0xMjguMDc0ODUgMjM2LjA3NDY2NyA0Ny4xMDQtMTQ0Ljk3MDM2MjJoLTk0LjIwODAwMDV6Ii8+PHBhdGggZmlsbD0iI2ZjNmQyNiIgZD0ibTEyOC4wNzQ4NSAyMzYuMDc0NDIzLTQ3LjEwNDAwMDUtMTQ0Ljk3MDM2MmgtNjYuMDE1MDg1N3oiLz48cGF0aCBmaWxsPSIjZmNhMzI2IiBkPSJtMTQuOTU1ODg1NyA5MS4xMDQ0MjY3LTE0LjMxNDA1NzEzIDQ0LjA1NTE2MjNjLTEuMzA1NiA0LjAxNzk4MS4xMjQzNDI4NiA4LjQxOTk2MSAzLjU0MjU1MjM4IDEwLjkwMzE2MWwxMjMuODkwNTkwMDUgOTAuMDEyMDM5eiIvPjxwYXRoIGZpbGw9IiNlMjQzMjkiIGQ9Im0xNC45NTU4ODU3IDkxLjEwNDU0ODZoNjYuMDE1MDg1N2wtMjguMzcwODk1Mi04Ny4zMTQyODU3NGMtMS40NTkyLTQuNDkzNDA5NTMtNy44MTUzMTQzLTQuNDkyMTkwNDgtOS4yNzQ1MTQzIDB6Ii8+PHBhdGggZmlsbD0iI2ZjNmQyNiIgZD0ibTEyOC4wNzQ4NSAyMzYuMDc0NDIzIDQ3LjEwNC0xNDQuOTcwMzYyaDY2LjAxNTA4NXoiLz48cGF0aCBmaWxsPSIjZmNhMzI2IiBkPSJtMjQxLjE5MzkzNSA5MS4xMDQ0MjY3IDE0LjMxNDA1NyA0NC4wNTUxNjIzYzEuMzA1NiA0LjAxNzk4MS0uMTI0MzQyIDguNDE5OTYxLTMuNTQyNTUyIDEwLjkwMzE2MWwtMTIzLjg5MDU5IDkwLjAxMjAzOXoiLz48cGF0aCBmaWxsPSIjZTI0MzI5IiBkPSJtMjQxLjE5MzkzNSA5MS4xMDQ1NDg2aC02Ni4wMTUwODVsMjguMzcwODk1LTg3LjMxNDI4NTc0YzEuNDU5Mi00LjQ5MzQwOTUzIDcuODE1MzE0LTQuNDkyMTkwNDggOS4yNzQ1MTQgMHoiLz48L3N2Zz4=;" vertex="1" parent="sS3E-fsOJR8goYJxDTn5-2">
          <mxGeometry x="40" y="130" width="65.08" height="60" as="geometry" />
        </mxCell>
        <mxCell id="MI_O_WjOlExlFQBH1zT7-54" style="edgeStyle=orthogonalEdgeStyle;rounded=0;orthogonalLoop=1;jettySize=auto;html=1;" edge="1" parent="sS3E-fsOJR8goYJxDTn5-2" source="MI_O_WjOlExlFQBH1zT7-22" target="MI_O_WjOlExlFQBH1zT7-53">
          <mxGeometry relative="1" as="geometry" />
        </mxCell>
        <mxCell id="MI_O_WjOlExlFQBH1zT7-22" value="" style="shape=image;verticalLabelPosition=bottom;labelBackgroundColor=default;verticalAlign=top;aspect=fixed;imageAspect=0;image=data:image/svg+xml,PHN2ZyB4bWxucz0iaHR0cDovL3d3dy53My5vcmcvMjAwMC9zdmciIHdpZHRoPSIyNTUuODIyMjM1MTA3NDIxODgiIHZpZXdCb3g9IjAuMTYzNzk2Mjc1ODU0MTEwNzIgMC40MjA2NjA0OTU3NTgwNTY2NCAyNTUuODIyMjM1MTA3NDIxODggMjM1LjY1NDE0NDI4NzEwOTM4IiBwcmVzZXJ2ZUFzcGVjdFJhdGlvPSJ4TWlkWU1pZCIgaGVpZ2h0PSIyMzUuNjU0MTQ0Mjg3MTA5MzgiPjxwYXRoIGZpbGw9IiNlMjQzMjkiIGQ9Im0xMjguMDc0ODUgMjM2LjA3NDY2NyA0Ny4xMDQtMTQ0Ljk3MDM2MjJoLTk0LjIwODAwMDV6Ii8+PHBhdGggZmlsbD0iI2ZjNmQyNiIgZD0ibTEyOC4wNzQ4NSAyMzYuMDc0NDIzLTQ3LjEwNDAwMDUtMTQ0Ljk3MDM2MmgtNjYuMDE1MDg1N3oiLz48cGF0aCBmaWxsPSIjZmNhMzI2IiBkPSJtMTQuOTU1ODg1NyA5MS4xMDQ0MjY3LTE0LjMxNDA1NzEzIDQ0LjA1NTE2MjNjLTEuMzA1NiA0LjAxNzk4MS4xMjQzNDI4NiA4LjQxOTk2MSAzLjU0MjU1MjM4IDEwLjkwMzE2MWwxMjMuODkwNTkwMDUgOTAuMDEyMDM5eiIvPjxwYXRoIGZpbGw9IiNlMjQzMjkiIGQ9Im0xNC45NTU4ODU3IDkxLjEwNDU0ODZoNjYuMDE1MDg1N2wtMjguMzcwODk1Mi04Ny4zMTQyODU3NGMtMS40NTkyLTQuNDkzNDA5NTMtNy44MTUzMTQzLTQuNDkyMTkwNDgtOS4yNzQ1MTQzIDB6Ii8+PHBhdGggZmlsbD0iI2ZjNmQyNiIgZD0ibTEyOC4wNzQ4NSAyMzYuMDc0NDIzIDQ3LjEwNC0xNDQuOTcwMzYyaDY2LjAxNTA4NXoiLz48cGF0aCBmaWxsPSIjZmNhMzI2IiBkPSJtMjQxLjE5MzkzNSA5MS4xMDQ0MjY3IDE0LjMxNDA1NyA0NC4wNTUxNjIzYzEuMzA1NiA0LjAxNzk4MS0uMTI0MzQyIDguNDE5OTYxLTMuNTQyNTUyIDEwLjkwMzE2MWwtMTIzLjg5MDU5IDkwLjAxMjAzOXoiLz48cGF0aCBmaWxsPSIjZTI0MzI5IiBkPSJtMjQxLjE5MzkzNSA5MS4xMDQ1NDg2aC02Ni4wMTUwODVsMjguMzcwODk1LTg3LjMxNDI4NTc0YzEuNDU5Mi00LjQ5MzQwOTUzIDcuODE1MzE0LTQuNDkyMTkwNDggOS4yNzQ1MTQgMHoiLz48L3N2Zz4=;" vertex="1" parent="sS3E-fsOJR8goYJxDTn5-2">
          <mxGeometry x="179.9999999999999" y="130" width="65.08" height="60" as="geometry" />
        </mxCell>
        <mxCell id="MI_O_WjOlExlFQBH1zT7-64" style="edgeStyle=orthogonalEdgeStyle;rounded=0;orthogonalLoop=1;jettySize=auto;html=1;entryX=0;entryY=0.5;entryDx=0;entryDy=0;" edge="1" parent="sS3E-fsOJR8goYJxDTn5-2" source="MI_O_WjOlExlFQBH1zT7-23" target="MI_O_WjOlExlFQBH1zT7-24">
          <mxGeometry relative="1" as="geometry" />
        </mxCell>
        <mxCell id="MI_O_WjOlExlFQBH1zT7-23" value="" style="shape=image;verticalLabelPosition=bottom;labelBackgroundColor=default;verticalAlign=top;aspect=fixed;imageAspect=0;image=data:image/svg+xml,PHN2ZyB4bWxucz0iaHR0cDovL3d3dy53My5vcmcvMjAwMC9zdmciIHdpZHRoPSIyNTUuODIyMjM1MTA3NDIxODgiIHZpZXdCb3g9IjAuMTYzNzk2Mjc1ODU0MTEwNzIgMC40MjA2NjA0OTU3NTgwNTY2NCAyNTUuODIyMjM1MTA3NDIxODggMjM1LjY1NDE0NDI4NzEwOTM4IiBwcmVzZXJ2ZUFzcGVjdFJhdGlvPSJ4TWlkWU1pZCIgaGVpZ2h0PSIyMzUuNjU0MTQ0Mjg3MTA5MzgiPjxwYXRoIGZpbGw9IiNlMjQzMjkiIGQ9Im0xMjguMDc0ODUgMjM2LjA3NDY2NyA0Ny4xMDQtMTQ0Ljk3MDM2MjJoLTk0LjIwODAwMDV6Ii8+PHBhdGggZmlsbD0iI2ZjNmQyNiIgZD0ibTEyOC4wNzQ4NSAyMzYuMDc0NDIzLTQ3LjEwNDAwMDUtMTQ0Ljk3MDM2MmgtNjYuMDE1MDg1N3oiLz48cGF0aCBmaWxsPSIjZmNhMzI2IiBkPSJtMTQuOTU1ODg1NyA5MS4xMDQ0MjY3LTE0LjMxNDA1NzEzIDQ0LjA1NTE2MjNjLTEuMzA1NiA0LjAxNzk4MS4xMjQzNDI4NiA4LjQxOTk2MSAzLjU0MjU1MjM4IDEwLjkwMzE2MWwxMjMuODkwNTkwMDUgOTAuMDEyMDM5eiIvPjxwYXRoIGZpbGw9IiNlMjQzMjkiIGQ9Im0xNC45NTU4ODU3IDkxLjEwNDU0ODZoNjYuMDE1MDg1N2wtMjguMzcwODk1Mi04Ny4zMTQyODU3NGMtMS40NTkyLTQuNDkzNDA5NTMtNy44MTUzMTQzLTQuNDkyMTkwNDgtOS4yNzQ1MTQzIDB6Ii8+PHBhdGggZmlsbD0iI2ZjNmQyNiIgZD0ibTEyOC4wNzQ4NSAyMzYuMDc0NDIzIDQ3LjEwNC0xNDQuOTcwMzYyaDY2LjAxNTA4NXoiLz48cGF0aCBmaWxsPSIjZmNhMzI2IiBkPSJtMjQxLjE5MzkzNSA5MS4xMDQ0MjY3IDE0LjMxNDA1NyA0NC4wNTUxNjIzYzEuMzA1NiA0LjAxNzk4MS0uMTI0MzQyIDguNDE5OTYxLTMuNTQyNTUyIDEwLjkwMzE2MWwtMTIzLjg5MDU5IDkwLjAxMjAzOXoiLz48cGF0aCBmaWxsPSIjZTI0MzI5IiBkPSJtMjQxLjE5MzkzNSA5MS4xMDQ1NDg2aC02Ni4wMTUwODVsMjguMzcwODk1LTg3LjMxNDI4NTc0YzEuNDU5Mi00LjQ5MzQwOTUzIDcuODE1MzE0LTQuNDkyMTkwNDggOS4yNzQ1MTQgMHoiLz48L3N2Zz4=;" vertex="1" parent="sS3E-fsOJR8goYJxDTn5-2">
          <mxGeometry x="511.77" y="130" width="65.08" height="60" as="geometry" />
        </mxCell>
        <mxCell id="MI_O_WjOlExlFQBH1zT7-93" style="edgeStyle=orthogonalEdgeStyle;rounded=0;orthogonalLoop=1;jettySize=auto;html=1;entryX=0.5;entryY=0;entryDx=0;entryDy=0;" edge="1" parent="sS3E-fsOJR8goYJxDTn5-2" source="MI_O_WjOlExlFQBH1zT7-24" target="sS3E-fsOJR8goYJxDTn5-45">
          <mxGeometry relative="1" as="geometry" />
        </mxCell>
        <mxCell id="MI_O_WjOlExlFQBH1zT7-24" value="" style="shape=image;verticalLabelPosition=bottom;labelBackgroundColor=default;verticalAlign=top;aspect=fixed;imageAspect=0;image=data:image/svg+xml,PHN2ZyB4bWxucz0iaHR0cDovL3d3dy53My5vcmcvMjAwMC9zdmciIHdpZHRoPSIyNTUuODIyMjM1MTA3NDIxODgiIHZpZXdCb3g9IjAuMTYzNzk2Mjc1ODU0MTEwNzIgMC40MjA2NjA0OTU3NTgwNTY2NCAyNTUuODIyMjM1MTA3NDIxODggMjM1LjY1NDE0NDI4NzEwOTM4IiBwcmVzZXJ2ZUFzcGVjdFJhdGlvPSJ4TWlkWU1pZCIgaGVpZ2h0PSIyMzUuNjU0MTQ0Mjg3MTA5MzgiPjxwYXRoIGZpbGw9IiNlMjQzMjkiIGQ9Im0xMjguMDc0ODUgMjM2LjA3NDY2NyA0Ny4xMDQtMTQ0Ljk3MDM2MjJoLTk0LjIwODAwMDV6Ii8+PHBhdGggZmlsbD0iI2ZjNmQyNiIgZD0ibTEyOC4wNzQ4NSAyMzYuMDc0NDIzLTQ3LjEwNDAwMDUtMTQ0Ljk3MDM2MmgtNjYuMDE1MDg1N3oiLz48cGF0aCBmaWxsPSIjZmNhMzI2IiBkPSJtMTQuOTU1ODg1NyA5MS4xMDQ0MjY3LTE0LjMxNDA1NzEzIDQ0LjA1NTE2MjNjLTEuMzA1NiA0LjAxNzk4MS4xMjQzNDI4NiA4LjQxOTk2MSAzLjU0MjU1MjM4IDEwLjkwMzE2MWwxMjMuODkwNTkwMDUgOTAuMDEyMDM5eiIvPjxwYXRoIGZpbGw9IiNlMjQzMjkiIGQ9Im0xNC45NTU4ODU3IDkxLjEwNDU0ODZoNjYuMDE1MDg1N2wtMjguMzcwODk1Mi04Ny4zMTQyODU3NGMtMS40NTkyLTQuNDkzNDA5NTMtNy44MTUzMTQzLTQuNDkyMTkwNDgtOS4yNzQ1MTQzIDB6Ii8+PHBhdGggZmlsbD0iI2ZjNmQyNiIgZD0ibTEyOC4wNzQ4NSAyMzYuMDc0NDIzIDQ3LjEwNC0xNDQuOTcwMzYyaDY2LjAxNTA4NXoiLz48cGF0aCBmaWxsPSIjZmNhMzI2IiBkPSJtMjQxLjE5MzkzNSA5MS4xMDQ0MjY3IDE0LjMxNDA1NyA0NC4wNTUxNjIzYzEuMzA1NiA0LjAxNzk4MS0uMTI0MzQyIDguNDE5OTYxLTMuNTQyNTUyIDEwLjkwMzE2MWwtMTIzLjg5MDU5IDkwLjAxMjAzOXoiLz48cGF0aCBmaWxsPSIjZTI0MzI5IiBkPSJtMjQxLjE5MzkzNSA5MS4xMDQ1NDg2aC02Ni4wMTUwODVsMjguMzcwODk1LTg3LjMxNDI4NTc0YzEuNDU5Mi00LjQ5MzQwOTUzIDcuODE1MzE0LTQuNDkyMTkwNDggOS4yNzQ1MTQgMHoiLz48L3N2Zz4=;" vertex="1" parent="sS3E-fsOJR8goYJxDTn5-2">
          <mxGeometry x="790" y="130" width="65.08" height="60" as="geometry" />
        </mxCell>
        <mxCell id="sS3E-fsOJR8goYJxDTn5-114" value="1" style="ellipse;whiteSpace=wrap;html=1;aspect=fixed;strokeWidth=2;fontFamily=Tahoma;spacingBottom=4;spacingRight=2;strokeColor=#d3d3d3;" parent="sS3E-fsOJR8goYJxDTn5-2" vertex="1">
          <mxGeometry x="100" y="70" width="30" height="30" as="geometry" />
        </mxCell>
        <mxCell id="MI_O_WjOlExlFQBH1zT7-58" style="edgeStyle=orthogonalEdgeStyle;rounded=0;orthogonalLoop=1;jettySize=auto;html=1;" edge="1" parent="sS3E-fsOJR8goYJxDTn5-2" source="MI_O_WjOlExlFQBH1zT7-53" target="MI_O_WjOlExlFQBH1zT7-23">
          <mxGeometry relative="1" as="geometry" />
        </mxCell>
        <mxCell id="MI_O_WjOlExlFQBH1zT7-91" style="edgeStyle=orthogonalEdgeStyle;rounded=0;orthogonalLoop=1;jettySize=auto;html=1;entryX=0.5;entryY=0;entryDx=0;entryDy=0;" edge="1" parent="sS3E-fsOJR8goYJxDTn5-2" source="MI_O_WjOlExlFQBH1zT7-53" target="MI_O_WjOlExlFQBH1zT7-62">
          <mxGeometry relative="1" as="geometry" />
        </mxCell>
        <mxCell id="MI_O_WjOlExlFQBH1zT7-53" value="" style="shape=image;verticalLabelPosition=bottom;labelBackgroundColor=default;verticalAlign=top;aspect=fixed;imageAspect=0;image=data:image/svg+xml,PHN2ZyB4bWxucz0iaHR0cDovL3d3dy53My5vcmcvMjAwMC9zdmciIHdpZHRoPSIyNTUuODIyMjM1MTA3NDIxODgiIHZpZXdCb3g9IjAuMTYzNzk2Mjc1ODU0MTEwNzIgMC40MjA2NjA0OTU3NTgwNTY2NCAyNTUuODIyMjM1MTA3NDIxODggMjM1LjY1NDE0NDI4NzEwOTM4IiBwcmVzZXJ2ZUFzcGVjdFJhdGlvPSJ4TWlkWU1pZCIgaGVpZ2h0PSIyMzUuNjU0MTQ0Mjg3MTA5MzgiPjxwYXRoIGZpbGw9IiNlMjQzMjkiIGQ9Im0xMjguMDc0ODUgMjM2LjA3NDY2NyA0Ny4xMDQtMTQ0Ljk3MDM2MjJoLTk0LjIwODAwMDV6Ii8+PHBhdGggZmlsbD0iI2ZjNmQyNiIgZD0ibTEyOC4wNzQ4NSAyMzYuMDc0NDIzLTQ3LjEwNDAwMDUtMTQ0Ljk3MDM2MmgtNjYuMDE1MDg1N3oiLz48cGF0aCBmaWxsPSIjZmNhMzI2IiBkPSJtMTQuOTU1ODg1NyA5MS4xMDQ0MjY3LTE0LjMxNDA1NzEzIDQ0LjA1NTE2MjNjLTEuMzA1NiA0LjAxNzk4MS4xMjQzNDI4NiA4LjQxOTk2MSAzLjU0MjU1MjM4IDEwLjkwMzE2MWwxMjMuODkwNTkwMDUgOTAuMDEyMDM5eiIvPjxwYXRoIGZpbGw9IiNlMjQzMjkiIGQ9Im0xNC45NTU4ODU3IDkxLjEwNDU0ODZoNjYuMDE1MDg1N2wtMjguMzcwODk1Mi04Ny4zMTQyODU3NGMtMS40NTkyLTQuNDkzNDA5NTMtNy44MTUzMTQzLTQuNDkyMTkwNDgtOS4yNzQ1MTQzIDB6Ii8+PHBhdGggZmlsbD0iI2ZjNmQyNiIgZD0ibTEyOC4wNzQ4NSAyMzYuMDc0NDIzIDQ3LjEwNC0xNDQuOTcwMzYyaDY2LjAxNTA4NXoiLz48cGF0aCBmaWxsPSIjZmNhMzI2IiBkPSJtMjQxLjE5MzkzNSA5MS4xMDQ0MjY3IDE0LjMxNDA1NyA0NC4wNTUxNjIzYzEuMzA1NiA0LjAxNzk4MS0uMTI0MzQyIDguNDE5OTYxLTMuNTQyNTUyIDEwLjkwMzE2MWwtMTIzLjg5MDU5IDkwLjAxMjAzOXoiLz48cGF0aCBmaWxsPSIjZTI0MzI5IiBkPSJtMjQxLjE5MzkzNSA5MS4xMDQ1NDg2aC02Ni4wMTUwODVsMjguMzcwODk1LTg3LjMxNDI4NTc0YzEuNDU5Mi00LjQ5MzQwOTUzIDcuODE1MzE0LTQuNDkyMTkwNDggOS4yNzQ1MTQgMHoiLz48L3N2Zz4=;" vertex="1" parent="sS3E-fsOJR8goYJxDTn5-2">
          <mxGeometry x="304.92" y="130" width="65.08" height="60" as="geometry" />
        </mxCell>
        <mxCell id="MI_O_WjOlExlFQBH1zT7-55" value="App Repo Main branch" style="text;html=1;strokeColor=none;fillColor=none;align=center;verticalAlign=middle;whiteSpace=wrap;rounded=0;" vertex="1" parent="sS3E-fsOJR8goYJxDTn5-2">
          <mxGeometry x="65.08" y="200" width="64.92" height="40" as="geometry" />
        </mxCell>
        <mxCell id="MI_O_WjOlExlFQBH1zT7-56" value="Deployment Repo Main branch" style="text;html=1;strokeColor=none;fillColor=none;align=center;verticalAlign=middle;whiteSpace=wrap;rounded=0;" vertex="1" parent="sS3E-fsOJR8goYJxDTn5-2">
          <mxGeometry x="180" y="200" width="64.92" height="40" as="geometry" />
        </mxCell>
        <mxCell id="MI_O_WjOlExlFQBH1zT7-57" value="Deployment Repo Dev branch" style="text;html=1;strokeColor=none;fillColor=none;align=center;verticalAlign=middle;whiteSpace=wrap;rounded=0;" vertex="1" parent="sS3E-fsOJR8goYJxDTn5-2">
          <mxGeometry x="349.99999999999994" y="200" width="64.92" height="40" as="geometry" />
        </mxCell>
        <mxCell id="MI_O_WjOlExlFQBH1zT7-59" value="Deployment Repo Stg branch" style="text;html=1;strokeColor=none;fillColor=none;align=center;verticalAlign=middle;whiteSpace=wrap;rounded=0;" vertex="1" parent="sS3E-fsOJR8goYJxDTn5-2">
          <mxGeometry x="582.62" y="200" width="64.92" height="40" as="geometry" />
        </mxCell>
        <mxCell id="MI_O_WjOlExlFQBH1zT7-65" value="Deployment Repo Pro branch" style="text;html=1;strokeColor=none;fillColor=none;align=center;verticalAlign=middle;whiteSpace=wrap;rounded=0;" vertex="1" parent="sS3E-fsOJR8goYJxDTn5-2">
          <mxGeometry x="815.08" y="200" width="64.92" height="40" as="geometry" />
        </mxCell>
        <mxCell id="MI_O_WjOlExlFQBH1zT7-66" value="2" style="ellipse;whiteSpace=wrap;html=1;aspect=fixed;strokeWidth=2;fontFamily=Tahoma;spacingBottom=4;spacingRight=2;strokeColor=#d3d3d3;" vertex="1" parent="sS3E-fsOJR8goYJxDTn5-2">
          <mxGeometry x="130" y="120" width="30" height="30" as="geometry" />
        </mxCell>
        <mxCell id="MI_O_WjOlExlFQBH1zT7-67" value="3" style="ellipse;whiteSpace=wrap;html=1;aspect=fixed;strokeWidth=2;fontFamily=Tahoma;spacingBottom=4;spacingRight=2;strokeColor=#d3d3d3;" vertex="1" parent="sS3E-fsOJR8goYJxDTn5-2">
          <mxGeometry x="260" y="120" width="30" height="30" as="geometry" />
        </mxCell>
        <mxCell id="MI_O_WjOlExlFQBH1zT7-2" value="" style="shape=image;verticalLabelPosition=bottom;labelBackgroundColor=default;verticalAlign=top;aspect=fixed;imageAspect=0;image=data:image/webp,UklGRsIrAABXRUJQVlA4WAoAAAAYAAAAZQEAZQEAVlA4TOIqAAAvZUFZECrN0/8rlyQ3WplBUDGRrjj65S8qKibQsPQfgH+ilmYcyLj1i4oyrrT0fzWjrqw87wVjH/NAObwVlukV825SdEJe4YRer+xpYXrlNMM1rRiGxWr1hJiZmcxwxbrmNDMzTU+YmfmIzZBilTmNgtWMjpm745pJVCEvmWHcE2Z2ma5XTEesjilDmYWra7bFGaEO8UpjZmYmQWk10TKnucxOQbfQbIu1GjDTGx4QtMUdJVjqmNmCO1H2TlBvzEos5SzFKjF0lONdipmxYtIw1DIzsz0oVpdYWpmZzjCsSiz1SvZrXom5wiWWdiztXmGbO6LNzLi0JgUWVFubG0lWWj3P3UEizF+fTgsRGNe1EEHP8wLasmvbrt1G/gC3KgdJJohbt+adWCAehMq56U9ws3IkiF37rSKcmpU+2wOxbbtbbdt2OOzXcBgOMQzjqiGGGGKoIYYYKioqV0VFRVVEVQ0VU1RMUVFVUVFRUVHRK6pq/lTVVFVVU01VMf2cvSqqqqaoqqiqqqioqqqoqqpcxzEBIncevB3/2v3v+Q/MNd84Doh5nvnhX57MD3UyP/zzv/Ravyg0r2Y9IBQJGIAhDVhBDo4EVY1qgtpNahPDq55pXQWmoXOqyBzwDPAGOEWOjARVN9UJal+ofae6n2kTTeczLSQhdMRHxA/kNbCN5IhzgDMyVCeptqnlVF+pPaNmhZrBpj+VForYoAH7EUVEDcgBHMGR7YNBOiPzR6m+WarcUvtG7S+qmUwboioVgBDosfzyQ8QWBmAScKWca3QxNQV51hzD3suGve88SahtUz2i1qFWyVyFgg86dUQecAJ4ALRd89F7WUcHdefJdGrvqN3NXHWe9FlS2GGiIxOIVcSlUgr2izeSwS5rJG8met+5McPey0xiz55qlWqR2mim6SjYoGCkwqQLJL+ECxtdvHGXaSnlKDC9vcPed5bYhNp9aj8Ob4wRDSnQoBjIPPJyCqIdBo37xWv1UTSut9tY6s4s1dZnoDrcdA8txLAVHTiJ/IVsIJkLAw37xeSaHAXGmDHD3svb2hKqL1Tr1G5kanLEV2mBBX79HYSDBuMAsAi88MOgrLXcI0eNMWZMm7VT392JUe2hqhRSEAQHE4a50/B92OVay3k6ygy97yzqTqz90FRTTX2qrPb6FAomAH2zyL/A1iw/LelKyxrTbaydTrVJ9c+7bGqUwgiDCfgIWEdeKOendTmSo84YQy0zHdZOoPaE2qVLGX6vUvBo2A7AIxKyG1AE3KgwKOua5MAYEw1ruU2osn08PWqtptfQAsffBRRO4zRDGQTlmuamzcw/leo7tdVMkx7++SwWMnYDzAN+AppApmRQrMhmbCnGmMgkCbWv1F5Qu03tWFOrFSjweUMIAzGE+ARsKBUE4GKyeVuQiYa1rC9JEqon1Bao6c1coxQg2DoQExHpR5QQDed3atnsLckYE3V0JBOordG1Sbqq06tAFRUa2GBtF1lHPM5ynZ7R19HRb8+C2nuqv6iOU3UVFFbhNxhpATKAzTeonGvcL9ajpUcYY3o7Ejud6hm1y5eSuV61gsHQ9QQgKkoEuYR48FUQaDlKW56Joiixluox1Sl61aRWXu39d1QQeEI//QnCiYmyCLz2ESyVQanuPcba+V8XtefUZjKNVgi4G+QssopsFoPGXV4ty1HNgTGmt7uD3svtBGqvPx21qcw9Sp43+AEwGsAR5NpBh2Gnli2QD2PMnLYkmfoo1Oa/1XJ5HHNgNgdhQxBYXnPotNbSw4yJem2SrEA1O+KuRldJ3gYH9pLAOvBlLLh4yfN6+9r6kxWpfXh3J0a9evIzZBdiErADuFd+qaRlC+XImKi7I7HJi6W6kqnOJ827GACgISKIlYWcCwZky+XKGBOZLmtPhdostQFqJfrfb1F+BQgCPiEfWyeVSoHOGuNMV9ew7sxOoHpObY7uFzWPWtlv3wNMejYKOFpauVjriswaxgzrzrq7+pOp1DaorVA7mXmNnicN2X4ASBP4AbgOfFIqHqjLls2fMSbqtoldgdp5aiPUankQngfCiYSTIPLb0r5f0rLFe4IxUZ9JkgPei6ZXjT3YvsRPoVeU7yD7kCvImxmz/LRUyV4mmUrtI7VHVHMjnq9aXjNo+wEBCYLMIH8i7sNQVXokhx5hTG/UnyRzqF5SXaM6Rr3qeQtMCFt6GOPAbzNcKLWWXHqGMaavt98mB0y1QDWYuaoOf/4b5SW4QmASAmwvXSxWY1nPetG4/rZk6gRqLzNX89SnnnwEJQRcQNYQLb+zM9aN5Lx6iTF9UYe1E6g2Tn8vMo2VZ+BIHhiZQm4D73xVLVckv95iTG9vd2IttVfUfqI2lqlaHsFGaFihbxmxjngLfa0l115jjBnT25YkO6M60/Sqmal0+OsZ5Qm7/dtHzMYw4/poxIsfd+YcUdQ2rDtPVrxlqrVMLdFrjLyg4XxPAOEdA3++w9BVtZacqylLAB2PMcaMm5xYS/WG2s3Lp2rlfAACNJgMLzxXqWqlKPnWWgdF4PlIndhU2xZFfJko6rbWUr2mWv5cmapQhZxuZd4RwCDyB/A5HCtltchfOZxyMCOTadzrWDFp65vDmYmGdWf9piuZ/l6ozlI1crih9wEMkSUBZ8iWX3XlAcm7DsLQR5wg0jh4RuKJn4Wm1qK2TO1tYm13FHFlTBSZNjvhH55+puboqjdHYysUGUCMLwx4UWFQ1JJz7ZyvkG8X83MQSRxUMbJ7sL3iV7gXVHf3ObG2bTm+jDGRSazdZ6pLl5JpzBwMBDMqMMaAe7OVGqhrybfWOoZd7o8HPgIPQT6wFUU0K93VM3XmAKdPTbpMFPFljFnOJMktUFOmxjf8NSRTcY618o9fAHBgYeBtuy9lRfNW0zp0PrAKTLNBZwvCtveoeehPRZmrElX7hRxwYvs9oNv0JxOobVFbp7YocyogRUaRpdsAtEK/1EgO+8Uk72Xn3CzEMaIA6GeiilFIVafqUP1E9Sqxtj+K+DKR6UuS5NGo7pwYVTNnYkIZDeAocnd2qKpFybtO0wDBEa+A24dDpIZ+HlSM4mOhmqf2kOrd1MSYvogrY0zUPzGx1Daplqj2UVWb7i8hJ9rtjx8QJvGnP7fVj6seUEtTNxtRPSkm0hAgMeoXeHPnniReMHlix7g59hv/bbpezdX/7f849xm8oChxlI2DmeE7p7WWfGvtfL8IPEBkEAEGl2iJe9jfEbVuanv/9Ao2SaKIL2PMuH7TNj/V+/2ntpC5GshxGCVkCJBF7rcjeehkRfKtK7rT94GvwNqrQRkCyKLFUuOlNv1jvvEEaydHEV8mMlGHtbfwuy/kLpp6IbkLAhhV4DCyMjsMg7rkXUsZOOD7SsB9Jik84xIt+k5fyAozp9qJXctFXBljers7EnvhR5ppQ3RVaHoV5yi7/e0GX/bhbg/5qoIg0NzVpAodsIr4gOvUmFDRsoffn2JqKVU/1al9tnbiGC+YbCec/anQ1aWmauYkbKEAYsBF5NHcMCxpyTvsF6t1KvXFkAffFSWKgyw4vBtqR6guvdjE2u7uiCtjTNSWJMk//DFUpzNtMOd480ATkAbsK+d0p5Z864pOY3eagOtFkfFVeE8Ep5mqnwK1B1c3PenvWq6bL2OicZOtpXpP7TdqItR6mu4KOcUr/owgVWQr1A52uZbc1Xt8H/jGUIUhAYMs+KXnAL1Gy7S5F5skXd3jeDO9k21XMmHL1C5SDeQQgx30VQI3gZfIF5UGgZaca11y4ay7/7kMfjbIgutMVakNU5ujtp4k/W30vjPOTDRuWMtskmyZ6hFdXRh+NZAjMFGAYcAM8Kjd92Mtee/pqTof8XygyE/I2BAnFdxn7lFfwRfZ2RxrO7ojrowxUUd/Yg+S2nWqyUxr0bc/ouzHBgJON2Pqo/h+WNRa8q21q1bHAt4XRO4hh1fz8QTCE6nRqJ1Y4ZanWtsWRXwZE0X9SXKv1K5SE6BGamogy7FHJJiMAqsf5zRVGjfuMv5gv5hTajaigpM4UscDIryx6fWMqaV01Tixt2at9YT+ZCrVlx1Q+yXThLIajgqDA1wGnrQq35W05FzrOAxnAH8BcoAQricqPDRz1001TrX8mqbapG0OX8aY7m6bJFumtkLtNLXB1SpkK4SE7EJmgH8BzPcDLXkfaHQxV/IXQFwgNs+gYSEKj8302kE1TXXv6lZMjO3v5cuYqM8kCdVHate20lQ1aoSsxMS1mZsBchenqQdUys7NfjhEfBVfb2DI80DCezPXaJe/wvSk30bcRcZE1t4r1fVzoYZkHziiAhPAXcTVUk427hcvFiXnWkvnFgf8+O6bRFDhyXStQlcDb+4nJUnSN5G6M66M6Y3629oSqk/U1qguUw1nGbboQEaABWDVD8NyWUvOdVxVPvL5qhDlZ9HQL0B49vui1qF2fQVq35LERnwZY6LI2oTqA9Xvp5e5alOfkqzRAISnAIMBQwpwOtZPnZaca90TuOJpXu63eLlDPBHh6SOucWWacWqrM8/C2smTI76MiaIua6k+/26qkaf0/JRmGiFLNEB+Zoj9xcf7qRfUe0I3bVGGeMPjScYJER6feY1I1xh0TZLa46le0Nvd1Wbnn0m18UUyTbTpfoZsgHQjHMAa4rxduUBrybkuxkoteOmIiStpGKjIgnSPTNdGqc5RPbbWGhNxZUxv1D2s5dae99H+zUzb81Q+fw9exwaFLW3k1DdRLtS6kZx32C9WklItDqgjVhGDIls2vap8aWp/7vN029XfF0U8GWOiqC1JdkHtxn+m1th3T2Pr1GBIw1Bv9XWp5AG6pNSCG2foGeykIos2fa58elQPre3v9oAOM3l++96oblITfkq//wS8a4iozwyw+wZnKee0lpwXtQzdGwZuAkcBxmAnEVmVqvxMTuGvzkmStogvY8xypssku1jhZ2Rq5Cn8///Im4DahSFLS0xSKq7UJN8VrUthuOB5HOdPHbwkIus2VTlTnRdF9XR6krSZiC8TzYmsTW6Z6g+6mqF7A8PvZ+o5TBAjZU79eDfvQtlIVpO8lxt3uQvGtiPvkRuIqMjOq/+qRG3iF1z4hMTa7uWW48kYE0VtSTKTrt2ma6IH2/Qs9hgGDWTydSNayPcwlsUBLwhXQm6/XJyo15GlxIieheGNh9rk+tcoijgb9l4WdfR3zX8Wt0B1K9P2eQpb0WAYA2w89yKChwHsMi05LzqnfMQj8Pv1ILpXsZ4EkcUzjXJBh/8ZplvbFvFljImsTZL39guoLf6t1T9LPIJ9nBihvFMYc8/d99Oi1pJvLXUQh8sCaoAvMAbZdx9jkeXpT69i5urIi9nBzMS2mTF8GWO6rU2eAbW7F0LVeD1ewB4gWOiI/NNpdT1pWtSS84rU4fIrvXbGyGP45YdY5IBN98gXcvrTrbVzuIuMNXbCLVO7QzX2ROdT4A+hXQ/KH+TdLD92jbusLnkvOxUinhBbOMRxNJiIIifcb6r24R7tVJv0R718mb6ozySW2ucX+7vvkJ7PhC8GL3AIubiEcmGgG8l511K5cOlNIAuIsMgdm+6RqI1/inc3M7FdY6KIJ2NMNLHfJjP3eh1UQ013JW4Gbyce+hmChxYgP1qFQbmmJd86jqtqFvINcQ1YA9oitxzx9SmhOvRWLnx6Ym1/xJcxJrLWTqdaydS+1d5DeGEL7z0ssTiwrYKgrPkLlFrp1SDDAIkRcgxBldDrRX2Xpz+/N7R12WQXVAvUmnycNGB80W055ce6Jvke0NqFCnC3KDAF4h96hogclJ4r3+H/PtqZ1k6OIp76lutKko1Ru7cOans+Mwd4nsBE2+NX/fZ9BfvFAy15r8Wxm3T8BwpYuAmRq9K//ijQtfEbonox0xrTN4eX7q5+k5z3CtR+2ongEg8MJqXRvpIeqRyiudFNilw2U12ZOnj6Z2+t4Tix95ppN6npHt4QwSUb1PUAm65arZa5q8iSUsjmFhiiSA8K5DRivzPV/DbUbk+wiemOWl7U3WHteX9NaofvmF5DBJ9sNPbPT4sVLfnu0Tp27v6Alc0y2CL3XX2v4ienukj1+Lxt0hFFLSrqHpdYu7HP8EKoDdHXCxG8slEHzhyKkpz31NI0mDR3Q4AlNgZEbvzE/RsyNU7tzsamz9/fP7G35YzpaLMTzv7qfnfmakRw7AVap354/MjlS8UDypaQI4lMhcy17szVwa89M0na5rScOR3WUnv/u/8tXZUPMZtpGYZqNHIVmdjkap6PWOTQTXcpNcF1/MGzsNYMe98Zve+sJURtbUmyi62eXqb66U9fYsE1Z1oHTiHbawYc7wOKJXJtev2VZNqBL3LAt5zYtigaRVFb7+QkufB9/Bn/9gmf/0aCc86klE4tgliEwYIBRA6+h38r0NXoVqm+2cS0QDt1Fz/jiwv+uar1xE4Bbl/rf0OosA4QOTndFTNXzUzr/Jj3Zq2ZMyq6+5OE2rvvQTV6x5leSDZrdLFyqNQ1AL4DJ9hgidz9Sf/pWfhA+/MZztsmE/uj5hljrU1O7Xt9xS8uRuFqvt4hz6vUpQvHL/BNj5MtTJHbP6U/ldDV8I+5hbNIjOnrGzcyUVuHTaZO30Gmrh6maH4GwqDgeapDzpN6Xr1HuhDQOAo8sH4Y28Q5nhh+Vxj+VYnqwNecniR9fdHIjDMdNtkF1U+HmqlSU8XNx85DBAzf2nrY4PU4HUulFnk1iNEHE/kgVfGWqB2n9seFJ4mN5kkURZNtcnU39KWp+ui5gmh2PBFf8Lru5x2u77N6Wa2nCvvF3djLBRzAMItiirwx00SOdAVqnxI7eXK0piJj7Jx7fWtU5zNtt2h+BhfAj0hd+lIOwO7hbLxLawe7vK5al9kxm9MU+ST96ZnQPUG6dutekzm9/V1dUWQ6Jk+ekzwaXfuJWr8YhavoiXwwQKXVhepQfr6nhU4hLxELDL0/qmE9QF4h6H4hdK33Um7o7G3SMTGKTFuSvI6H/tV0rZ5pofnYIxKMw8jvd/rFVCn2slrVV63bAmw9M4Qp8s+m81Ph39LVAtWfL9naydYmr+MvUztF1RLNjyuuN7G+jzJeqThuJPOsmm7cL566KW8YWdvxjxJ5aqaGfgbV5sw589/yAVNbomts0fyXjRMdZWQ7s31X0lJKz6po6bvRPx/oRwgMOF95oKYqfVmqqwe5i89HrU2vF0L3QPOx84kgkzt6w9PGpiUPq+iaH4ZPZ28AcQZ9d38dJPLY1b4+BbpqUzv6LjNXraYWiWYfPFFA4iCfDnRuGFZ1I/ma9KQeV1WHgrzdDjLbJfJ3mEgwsYEZ4B/lQq0r0sPc2OXDi0HJ45kOkcfDqKIkUE6WCoNYy3noTbMRZ7u5EhRF5O+DjycXYwq4u0i7CmLPU4ALQI4deET+vk1k//697tP0w0DLee5J/pmzM52Dnz9A+RpbD4gNlE20P34evq+KNTmy3vTP2BGLnYF8ja1TAaTWinxCvPudslLMCpvI144AJAFcu59ZzlW1liNfQAKRgcHjfd2tvh8UZbMWjJgDM4cCHEce+36otWzmQhEcKIAk4Bew0e53xoUttqKixIClfQv9UGstm70AhE8RCoHRB2PmYJSfDmg5KgtA+JSiTFzLslNUWuj6X3DGC9xSvh/omhy1BSB2xP4ovi7KUV4AOuZN+LIFzsuX1f9pMLXk9VCVqCpUVaoatR10DS1wNd2jUdt3uFRLW/3aVP9+OromQddAQaXp8xkyz5FOlKrnRJt16yc6olFHNDByT/X8BA9vzU9CTf5rvpWfdCpUG7uYmVBboyZDDRRUqFEu6Qo3/UKa9/BfwTGNRNOfFqi6/+2bobZM7f6WqeVUeZJYmySPQs14YeXg9+csbDNT235rVPV5RtcKmXvtV/TuptokMb3jImNMAWZFS+/lzToyTc9P6elQs73Cvb6upG2y6e+NCjJUOzf9uhLTrMl0qsfzYETj+lYvhNqDZ2AT2zasOxtj9sgCVOYeuF1qnV8wIUkm95p5XIC6e2pXLvwsbMfkAteIPlWopv/gQSbJxMiMbAGJ2mNqdSHE1qlmXmxiu7rmmILVWfzh1ydE059GuoFTsxPHmOYsJG1dDG+8X/Pq7MSJUUFrOrVH93u7v/OWk7bePlPIstP38Zaonab6nHRFppkLRsnZH/DXPmDbVvhasfOWp1vbbQpcUWKtjSJT6BrlT8udqM9YmyTWJmtsE2rr1GQKT1GfsTZJpu/iFu75Kt7a/q9//fu/j1dB9foPUpMsMEV9k7u6hr2XTZ064cJf01apLV7+Vj7QudBrrLv4pZe0lT9K9SM1IWpwYWlc32Rr7S966POka3qOZevUqsdElZ7j8Eag5wC9FjLXkExDqNK//5mpEUUhaU6HtfYfPsc/Ta1D1aZ7JOH5eVxv72Q7YRf7+H8zNSCyYj4XJfYfvqKLf6BDLGRFw97Lxky0W97q8BrfusiWeVrvuHE2+cYPTTUksmd+Fpn+fvto1/W+RKErsvYXfJKPLgpedirV6pduaqgoeHXZjV3IiPuVisJXchZv7VhEAcxO3//9LIQl0//w65vXf/P6b17/zeu/ef331NUcPNWSbfYXW1B6xus44Ec792bd5wOm9vt+FpIyz6HUGHf4xn5181Lt/+LDG1JIajqfUeY5wlk1+4iGjGhQISmXnNd/BaGnz84YIp/+kU8/ax0jSJJN1Dzq1vuOMVuFS10LjGMwGpeNzwPlR8cAo/firmWpMEvFk6Yte86IHH6eUl7U4JGCpLez7LRJcZaqB76atSHEGiKJ8OY9jG7g8JIH0+77QT1LSTlQVs4hahthky42KA3bG5TPsKUEsI8XWFV+qIs1mbXqZVmq+e0/aO/YQs9j2EoHTJIgp+2hbtwvHuu6zF5S6nKjiweqdZkNI7IILU+BRQdD5luMnqbSUk3LFupZUkod+EohL9b1bFA8ecjZIQce+WCW9/2gJluul0mptQzDg0GZxjM6kg4ZUF6BJ4hBZNS+y1U51VmE/WKyJXtbTcs4nLLsEsj8SecVeKDNB/i7YLuTncViziCl1tIPfeTVogwpNnTmDWyhIT8gvt1p6MK0rGXL9jopZVGnvtuPfdgcHioNifIBgALoAUzfj1JyQMsWnwW0lrLoit90fexQY6co5xsENBjqbhCnRael1LmIlMViteq33t95IKZQvDkejO7NXBPgdraSQUVLDrOClHJAO+cj6r/3RzIYORwbNDbEzgRxopyrNLqY5DNbSKl7nFPLAObY4G/YHsjQU5yTDRE8eB2EDSZgCnCpnCtryWv2qGjn1HhA634Qs0Og52Sf+4Oc7eLjlXM695FS61ipSYhrxNb/A5g5FxP9jyPXN9SqVFyvSX6ziZSyKFMXvkFAaY8/96q2B5xD7bZfoRfKJLR/S7hQSS25zjJrnPoOeXMUQxZmDvXMQHL74TvJf/Ypp9K1Iu6uCjj7Q3MktqLDmAVWP/sUPwhqOquwwdixSuNijS9Z1OXQudFLvuKTXvm3B5T7fII9AZaBdd/3i7BfrCb51lqnbv/YaLQgNmrHC3h0MgjKWvMkpdQyCNVCR3EYIC48g3Ma5kR3AoN9nPfuh05WJN+6XkvTQK20dyfaggQe6vcwWoVBD3c1GcSqdfbTQSlvO6f5HxtZYtosP3ayzpsupn640LoQnaIlr6LAXgLjyMUllAsDzZeUUgdh6JCNh0NmDyNnYbDeNXAHeYlkLgzqkvdip+874NVx/XeEb+gJtCghBMKDnETZP/5ZfuzqFb5kj66lYbgQ4st/21O2FHKQho8DkOqbuNnRygU9Wku+azpI1ZSlkYcosyidgkNYYljq3/XMWp30SNW6EHCJDYEchC3MHS/S6qRHqimjAUUcTByw4PLEN/VO7/K5+35a1HXOdKeOXRH4CDy+2U+XYyBMlDlgdenxKo0DzZnW5cC50YB5hjBDx9B1guCWrWgXB1y/mKIfBrDLNFdSSl0qKXW5i20GYT+6j6+h3KELkTiDRZQfBlryXpa+U9eA3EKmD17wzUQ73mNEtlpdLDXsF+NLSqlj5W71/zMEGCQGyAnYOuDQUOyjQNy4sLMuedf1FHZ5OH4G8vw4hywMwTtzQ0woEwMku3kXyormrhJXXSvyZZnLZAjmBGywtnsaK81ycafmrlhPXbitHeOBiXAN3U7EnRAiQMaQ80tMUiqu1PiSOtWhU5d7TTDkkYFV9APIco/HxwjF//C3tozvXDnVkm/dEyuljm9diOH/IbwS2fFVAHtvcLxzrqy5klJq2C8eK3WNrwY59D/Y+QRZbNB6DyAayuBxHb9SQVCWnFfqQaDGA5pH//mHQBNeesMwpGE4//5+2VXLmi8pZUU6t3bANxCbnTeStVa2bsDEB7J472Eoa5L3uo5LddV6O6fI5vQKj/3oKN0f5NSdU+Ue7uoyLi1//sBT5BKiL0shu5FFkBrwvjWMZYU7XQud+qavmqGHwT1oe4O9RgiEdkWf8fhOU6lAa76kLJedC9eO2NkMsGuwkKzTsAGMPmASubGIUqHWWvJdLDbucqVab+efID6etPDmoXMqnx9QXfxQlEwHNF9SVnQ1DJe9ecYoW4cES8gq7DiBwcXQe8prDsO0rCXnWrvUTVkWefLwDKrw6qHrQNexJRhSgNNJSO4BWnfCfvG4OG2ZRWESZB8/gSwyqG9gOLC/2ehps8Ig7alxV45994OAWaDvOhiwZwkh2EJFRm92rcqF5bLmSkpZLnUqf833hZx7E1njUjf7z4D3vq9KWnJe19oPw31FLDEMskEXXr+nRwVSOY2lnAu05kvKSrnkwjXv7bdDmggxC8CBAPACYoi1hZwLdFFyXit2puG0RXZ0xSctsmHDIG3mZpxL41jW+JJSa+3Cucj1/wZfHyDvuxLA8uIq7ClryblOU1kM/WNEyeJnZJElf9gnvJ7Njw19V/eAUhAiW+99STaEGzbB29iiC8flf3H+DnZ5XOavFqTKAc4RWWQQRRbZExfKFSG/HGOr77tajSsppdZx6N7hec33wEPdiGet4tsbeDlHtdjSSsmBmuRcl9PQTbrTp8uQxMEtsitbkWFMwHB459NUGmutuZKyoktKAZ6QmyiR68QBPOk6NoVD6GHvXKm4Xpec63JacrMWBDmZ74ZF1mXrJOBQGcc+iu+HRe50sSTV+GnHv84H8SREaG8QzWlTlIzr2gOcu4zPP3hF2yt0oOwjxBH8qVMEHiLfwrCq+ZJSVnpUGC6IODwKQGTQFuIxj+mXX8FsCIIUt3N+zvm6KHnXqXPL/4v9exCEW2TrwQ7at7cvbSkl47jOl5S1chC6L7ZxxgSbGJfgITghW/pgSy7rQtejJec6jquq/RcjdufD81BENt/Ude/bFwvrJdcjNVdS1nWs1EpX+SwuwTNgQmHSi9hes1KB1pJvLbVzOpzxkS9tCFSR5S/hea0H8Md3rpzypnVcrfoLvN/PCIju1t/+iLwBpfcjPPfP4svUAzrroVPnDMg+rx8msv+fgyH2e099rlKuwpeUUhdLzl/p6F/9mxh6QrljK+RkrvgM7zxUpUpF8j5QUq79vS95UgyayA3x8yZe0aUDHk7Tl0Gg+ZJSlp1zsx7ut+CJyoRwxQbCVpRXjtiYHfqdWvJerFY71TTg43a+SsM6XCJnPNYfxeA81/etwqDCXcW5kt++9m/BJD5oexA42u3fPuC7OoiFZo+NO1P+KlWlWl/3Fwbqly1yyRvY3Blt8DSVH8eaL6l1PQ7DN/zLgUsgUbaFcjLo/AEB9AFKPwX45LuS1lryraX23ZRfvuOXC4eyyDXZhgswtM47naFcUNZFnqSUFe18vx1Y+bRIewgpB4ewSWACsDPXVyWtJd+6otMwbN/Qxhk+sKUqctFVFHLP99Xe6rsg0HxJKXUQhrMRv57N0BWKQC0MgAY76IPs7VznXFnyXqw27hdP3ZQpV/VdhpwnFTnqDRz5F0bstbvQA2pBEPhzT2Odv2Xo+SC0qNX87cAM0W+2IWTLh13uXA93tU7fn3Izv3WTCFnkrsxJHwS5cBlz/dDJGl9SF3XJhQucxz0w9D2HFsMeoe8UMd2/uApjXdeSby0D3037Fxv99XhGErkt2xB/C7Ky0DSVpjWteZJS6or2XXGDr3ZPkUKLOAagBuPQt5il1EBRS761LgdOtR8Swy9AYshCEjnvEMA2YYzBuDvL9z0hdW7K8z16xNBQN7EFDNl+JJzcCdz5lLFVWal4QOhaP8pxs0EdvA4YOqDcRwi24oIh+PXOfIYfxvUBrqSUlc5O5X8xxN/jQnGGPm50FDGQu0UuXsbivl8qDUjey6lz3/+bAHOMoY8ucuUGj4TJ4Df7WMiWi6XUfEkpy1KFU27mt+Kk6whGARMXEws4dvezQ1XVkveKTGGXh19sP9b5itk6qcilV+YNeeXIHeSzv7yUcb3Ol9Ra+/4s4EHf0DNSsw36dqNMhq6+3YX1mpZ8ax1XZVHNPQ/ECDwPKnLsP41iIIfPcIZSHlDRnXE4bTTK7n8Hp9wsbIW+c5SdM5uhXKw1f4FS0y79in4NgIrce+VC/tt2N/jFlHNacyWlrDnnqynAKmIOGIUj8khd9x5/1+20qzAOtORca+fcae7ba32QoQdU5Oa7+/EtYEMUhp2F5qqSg/1iZb6klDr1w9bX/YUP5xDm0WUz6kBnR7PDMKhL3rUulXzE661umMEZtL0RRc7OBmh46Lr+u2t3ruwFcac6lBnb+S4r74HMg93ebvDfX9wbbh8bBIHmrjjg3Pu+ym+Hx5P0p0UuDyN5OevpX0mpQA/wJaXUpTBc6r3f3XGzObU18ec+2M1v/rOEYaksea8Uq75aYBPzIYIoVOT6u+URf7W9+ReLu87OAc2ZrGgdOrfWU3wrN9DwusF1AwOAyQ36zmmpJed6oLPTfbH7uXng4OCngsgHXwlbhBde0E0qBWm5zpWUUsexmn0t352Jj0kc5HABPwi05LyuZVqapBZnrLBxiA0ukSe+kktEOMDt7+/CtFzzgKpqHw08H/0yVOoBuiZ9N21L132JbKQif8RP6J/avx0dv3NBXfMlpdQlf41jLXkvDnT6DviEPEAp/KkhJ6LIM/cYuQLSWGBsHLsKZ7IMuzyuxqWy5FwHqXSA1+eyzpMT+SeeYBwVHCOPtFIYuhpvPWm1VE17eKsFvpqxYcTA2cF5w3mIELggL+ePAzeX9X1X1Fx5oS6noVrg1uZ7NzhQka8+lp/+BMMyCMPy6wY+KD/Wupa9KuXUOcTT5kFW2NA/+PFIRF7L2AtceVatk+JA6ixVSUul5aeAtN793Yp8lwn5Hl/tapEPYZi1dOrcF7tKROykcRDzHiEESHCzd781peK4cZdlnUocK7XgTz7OLzP0T29A5MePz08QMoBYfb9fTJWc1jqL6HqPK4X/4XYWe9areR4g8mZY4IbHA2FD73NewLl6uZZF6lo7N3vR/R/07Q35XSKfZusgBw/j6FEiG0q5gaxRhF3u3Nr39q/9NjYHFXn33bzqtZ6/L4OglgWKjbu8WlXv8GzXhewTefluAxi6FkPcuuVlGsdFT6tLmbqiO78tPQQ7FUSe/jf/HQz9B3b+yo+Duqdpmfpu2asFxJHaKxP5+6BfPsJJXvHCwKZyYU9Ne1SxotMw3Nql7+atsCURef5N3BPwGtlqdZ2dNU+qdHamxWWBN0f5ICL/R+DBoAz2c1rI+Z1FTyp2+v7trRulG89QXEABQIhB6w2+o/9+84cU+s7VPaYWBL67vUUvDcQa8ryBKBjC0MVYBO4D75SfFrX2DF0rB069/+fKsAAIPp6PN1gUFNmKBWP5/Ka5NI513RsGUgm73P/+W9s+G0Ki0MgeTwCDurlH/Fd+GGutPaGcIrk7fsQaY4SN7nMsOAgh/s56Nr6IC1W1wp1OfRcu/UhXfKmiUMngQyltfiVkW8m4XudoQAdV1fpLEPUlEV2icNngRCgiih85/6+UimsVjrSOlbrzH3sYl8COExUwhHg8foAR+t/bwjLKOa3rXOhKPQ7d0osBnAdbxQmIgufzusD7OuhJzrkBDgZKYUkthDjY7lsRhVE2ejfy0sbP8mVQ1y2qWKxWVWtxkT+P8IlCKVvBm3orN/vSfBXUWpxSyNt7Aoauc+h5QMFECPHX17PYG1TKH6jpFqKLOg3d/e16Pji0RKGVLYwdb/78p6ggKBdbgC6maTAW2bofhjIbA6Lwyh7gx/uPHwHC2vG/UmFQrrUEnfrh2jd6GPh6BLbEBRghVnGDvscrR5b3VSm/WBtFlWKn70Yf14UhO1d+nCAKtid9xSi/7m+8n7p6vdm0DlJVPCTE/ndFsURhFxc6Q/EHff9JnWla1M1SLAeBnPS+RwPKOJir2t4hUeDFB3AD/+suR/t+Wqw3V6ju720yhG5gyAJEAZit6DAkAasXo/xQaz0y5bLv1DWsGyR18KJQ/D1e/dne3vcPY6n1PNA6hV3uxr9D5OkN42CJAvKfZk795y8RhiNRSZ3b1lHgiYEHRBSW3/RhIgvIulIyrq+JYlBV6h8fxQf+H6LwjOKeb2HA1VjnpNZahs4t0793n0AUptk6dRgmYbhcalbRSVdpbd/WjtmcPlGoHrwe8e7PJbPvtRp3Jxpd/4PdtpMB8P+NuyeNrpnGP37fD/j341jfg5wKRVhJRroAAABFeGlmAABJSSoACAAAAAYAEgEDAAEAAAABAAAAGgEFAAEAAABWAAAAGwEFAAEAAABeAAAAKAEDAAEAAAACAAAAEwIDAAEAAAABAAAAaYcEAAEAAABmAAAAAAAAAIhfAQDoAwAAiF8BAOgDAAAGAACQBwAEAAAAMDIxMAGRBwAEAAAAAQIDAACgBwAEAAAAMDEwMAGgAwABAAAA//8AAAKgBAABAAAAZgEAAAOgBAABAAAAZgEAAAAAAAA=;" vertex="1" parent="sS3E-fsOJR8goYJxDTn5-2">
          <mxGeometry x="469.99999999999994" y="13.5" width="50" height="50" as="geometry" />
        </mxCell>
        <mxCell id="MI_O_WjOlExlFQBH1zT7-71" value="5" style="ellipse;whiteSpace=wrap;html=1;aspect=fixed;strokeWidth=2;fontFamily=Tahoma;spacingBottom=4;spacingRight=2;strokeColor=#d3d3d3;" vertex="1" parent="sS3E-fsOJR8goYJxDTn5-2">
          <mxGeometry x="440" y="110" width="30" height="30" as="geometry" />
        </mxCell>
        <mxCell id="MI_O_WjOlExlFQBH1zT7-73" value="7" style="ellipse;whiteSpace=wrap;html=1;aspect=fixed;strokeWidth=2;fontFamily=Tahoma;spacingBottom=4;spacingRight=2;strokeColor=#d3d3d3;" vertex="1" parent="sS3E-fsOJR8goYJxDTn5-2">
          <mxGeometry x="640" y="110" width="30" height="30" as="geometry" />
        </mxCell>
        <mxCell id="MI_O_WjOlExlFQBH1zT7-62" value="" style="rounded=0;whiteSpace=wrap;html=1;fillColor=#d5e8d4;strokeColor=#82b366;gradientColor=#97d077;" vertex="1" parent="sS3E-fsOJR8goYJxDTn5-2">
          <mxGeometry x="207.46" y="340" width="260" height="130" as="geometry" />
        </mxCell>
        <mxCell id="MI_O_WjOlExlFQBH1zT7-87" value="Aws Dev" style="text;html=1;strokeColor=none;fillColor=none;align=center;verticalAlign=middle;whiteSpace=wrap;rounded=0;" vertex="1" parent="sS3E-fsOJR8goYJxDTn5-2">
          <mxGeometry x="305.08000000000004" y="370" width="64.92" height="40" as="geometry" />
        </mxCell>
        <mxCell id="MI_O_WjOlExlFQBH1zT7-89" value="Aws prd" style="text;html=1;strokeColor=none;fillColor=none;align=center;verticalAlign=middle;whiteSpace=wrap;rounded=0;" vertex="1" parent="sS3E-fsOJR8goYJxDTn5-2">
          <mxGeometry x="647.54" y="420" width="64.92" height="40" as="geometry" />
        </mxCell>
        <mxCell id="sS3E-fsOJR8goYJxDTn5-44" value="" style="rounded=0;whiteSpace=wrap;html=1;fillColor=#dae8fc;strokeColor=none;gradientColor=#ffffff;" parent="sS3E-fsOJR8goYJxDTn5-2" vertex="1">
          <mxGeometry x="460" y="340" width="270" height="130" as="geometry" />
        </mxCell>
        <mxCell id="MI_O_WjOlExlFQBH1zT7-92" style="edgeStyle=orthogonalEdgeStyle;rounded=0;orthogonalLoop=1;jettySize=auto;html=1;" edge="1" parent="sS3E-fsOJR8goYJxDTn5-2" source="MI_O_WjOlExlFQBH1zT7-23" target="sS3E-fsOJR8goYJxDTn5-44">
          <mxGeometry relative="1" as="geometry" />
        </mxCell>
        <mxCell id="MI_O_WjOlExlFQBH1zT7-88" value="Aws Stg" style="text;html=1;strokeColor=none;fillColor=none;align=center;verticalAlign=middle;whiteSpace=wrap;rounded=0;" vertex="1" parent="sS3E-fsOJR8goYJxDTn5-2">
          <mxGeometry x="562.54" y="370" width="64.92" height="40" as="geometry" />
        </mxCell>
        <mxCell id="MI_O_WjOlExlFQBH1zT7-72" value="8" style="ellipse;whiteSpace=wrap;html=1;aspect=fixed;strokeWidth=2;fontFamily=Tahoma;spacingBottom=4;spacingRight=2;strokeColor=#d3d3d3;" vertex="1" parent="sS3E-fsOJR8goYJxDTn5-2">
          <mxGeometry x="825.0799999999999" y="23.5" width="30" height="30" as="geometry" />
        </mxCell>
        <mxCell id="MI_O_WjOlExlFQBH1zT7-99" value="Aws Prd" style="text;html=1;strokeColor=none;fillColor=none;align=center;verticalAlign=middle;whiteSpace=wrap;rounded=0;" vertex="1" parent="sS3E-fsOJR8goYJxDTn5-2">
          <mxGeometry x="880" y="370" width="64.92" height="40" as="geometry" />
        </mxCell>
        <mxCell id="MI_O_WjOlExlFQBH1zT7-86" value="AWS Cloud" style="sketch=0;outlineConnect=0;gradientColor=none;html=1;whiteSpace=wrap;fontSize=12;fontStyle=0;shape=mxgraph.aws4.group;grIcon=mxgraph.aws4.group_aws_cloud;strokeColor=#AAB7B8;fillColor=none;verticalAlign=top;align=left;spacingLeft=30;fontColor=#AAB7B8;dashed=0;" vertex="1" parent="sS3E-fsOJR8goYJxDTn5-2">
          <mxGeometry y="340" width="1100" height="130" as="geometry" />
        </mxCell>
        <mxCell id="MI_O_WjOlExlFQBH1zT7-106" value="4" style="ellipse;whiteSpace=wrap;html=1;aspect=fixed;strokeWidth=2;fontFamily=Tahoma;spacingBottom=4;spacingRight=2;strokeColor=#d3d3d3;" vertex="1" parent="sS3E-fsOJR8goYJxDTn5-2">
          <mxGeometry x="350" y="290" width="30" height="30" as="geometry" />
        </mxCell>
        <mxCell id="MI_O_WjOlExlFQBH1zT7-107" value="6" style="ellipse;whiteSpace=wrap;html=1;aspect=fixed;strokeWidth=2;fontFamily=Tahoma;spacingBottom=4;spacingRight=2;strokeColor=#d3d3d3;" vertex="1" parent="sS3E-fsOJR8goYJxDTn5-2">
          <mxGeometry x="600.08" y="290" width="30" height="30" as="geometry" />
        </mxCell>
        <mxCell id="MI_O_WjOlExlFQBH1zT7-108" value="8" style="ellipse;whiteSpace=wrap;html=1;aspect=fixed;strokeWidth=2;fontFamily=Tahoma;spacingBottom=4;spacingRight=2;strokeColor=#d3d3d3;" vertex="1" parent="sS3E-fsOJR8goYJxDTn5-2">
          <mxGeometry x="930" y="280" width="30" height="30" as="geometry" />
        </mxCell>
        <mxCell id="sS3E-fsOJR8goYJxDTn5-115" value="&lt;h1 style=&quot;font-size: 12px; margin-top: 30px; margin-bottom: 10px; color: rgb(22, 25, 31); font-weight: 300; line-height: 1.226em; padding: 0px; scroll-margin-top: 100px; font-family: &amp;quot;Amazon Ember&amp;quot;; background-color: rgb(255, 255, 255);&quot; id=&quot;id_credentials_temp&quot; class=&quot;topictitle&quot;&gt;PM/TECH LEAD&lt;/h1&gt;" style="text;strokeColor=none;fillColor=none;spacing=5;spacingTop=0;overflow=hidden;rounded=0;fontSize=12;fontColor=default;html=1;labelBorderColor=none;labelBackgroundColor=none;" parent="1" vertex="1">
          <mxGeometry x="550" y="-23.75" width="110" height="40" as="geometry" />
        </mxCell>
        <mxCell id="sS3E-fsOJR8goYJxDTn5-119" value="&lt;h1 style=&quot;font-size: 12px; margin-top: 30px; margin-bottom: 10px; color: rgb(22, 25, 31); font-weight: 300; line-height: 1.226em; padding: 0px; scroll-margin-top: 100px; font-family: &amp;quot;Amazon Ember&amp;quot;; background-color: rgb(255, 255, 255);&quot; id=&quot;id_credentials_temp&quot; class=&quot;topictitle&quot;&gt;Developer&lt;/h1&gt;" style="text;strokeColor=none;fillColor=none;spacing=5;spacingTop=0;overflow=hidden;rounded=0;fontSize=12;fontColor=default;html=1;labelBorderColor=none;labelBackgroundColor=none;" parent="1" vertex="1">
          <mxGeometry x="340" y="-40" width="82.5" height="40" as="geometry" />
        </mxCell>
        <mxCell id="MI_O_WjOlExlFQBH1zT7-25" value="" style="shape=image;verticalLabelPosition=bottom;labelBackgroundColor=default;verticalAlign=top;aspect=fixed;imageAspect=0;image=data:image/webp,UklGRn4hAABXRUJQVlA4IHIhAABw1QCdASoyA/4BPm02mEkkIyKhInKJGIANiWVu/CX54ZEnKbO/yO4yzR6z+5/tz7YVhfxn0ycuoc7th/sf3n2f/6X1Jf1f/Zf6n8////9if6udKnzJfsb+13//+HL/dftf7yv7N/t/xA+QD+n/8XrXv3c9hH9uvTp9nH+x/9j0z/UA///AheQP8V/aO5X/Jf2rqZ/KXsnzFooPxv7SfzfzS9re8ngBfkv9S/zm8sgA+sv/K/ufiOajXh32AP1q8bHwRfwvqAfy3/C/st7uv9b4/f0f/Uewx/Pv8J6X3sN/db//+6x+6YKocxtj+g0Gg0Gg0Gg0Gg0Gg0Gg0Gg0Gg0Gg0Gg0Gg0Gg0Gg0Gg0Gg0Gg0Gg0Gg0Gg0Gg0Gg0Gg0Gg0GgKfQaZ7TPaZ7TPaZ7TPaZ7TPaZ7TPaZ7TPSrFZVjuMdxjuMdxjuMdxjuMdxjuMdxjuMdwA/QeQTG2HtM9pntM9pntM9pntM9pntM9pm5YSLzL+ZfzL+ZfzL+ZfzL+ZfzL+ZfzL+ZfVyUFBMbYe0z2me0z2me0z2me0z2me0z2melOEZoZ+wjE/kExth7TPaZ7TPaZ7TPaZ7TPSnCM0M/YRifyCY2vXjMOgZ8PcL5D+/89If2SNBj/IJjbD2me0z2lyzTdJE/kExth7TNWE2qIy/PgSt9rlrbifnyPzJwyIfd6g1wrRDHfXopaYq54GhlV1Ecv6Uy/mX8y/mC9eB+QTG2HtM9pbsC3RjUJiNOjA3Fswi0gEY9dFfQTnCxWCLKzNuUy/mX8y/mX8PunQ1gCY2w9pns4fT062FYtGVFboVzmp3VIcoVuzY6wUX95T6Z7HdpntM9pntM9pcs03SRP5BMbYe0zVQPHB5suKv4EmqXqYmZ5VEcaqzetwsQEn2daKUfHN/c6NbhGJ/IJjbD2melOEZoZ+wjE/kExte+0ZY+iY1pjpYtLmVwv5tnkIaDfEM/YRifyCY2w3LCReZfzL+ZfzL+X17kufLEybkKEMtZcLwltfv2/SHaUT65H7CMT+QTG2HtLlmm6SJ/IJjbD2me7BR8OtStgwSEkFvxei36gOtlZLEOvwEawky0eg2ergAqBM/QX6MJkN6EM/YRifyCYBzSLzL+ZfzL+ZfzLEqNvBSlH0bLNKnYXHBUdrR+8t/aMaIx1fy48knviUSlMv5l/Mv5lmP0HkExth7TPaZ7N1KdlogdnsM49bx4OloUFWyUqEpF4ZRJxaBLxzppzmsATG2HtM9nSYGNfzL+ZfzL+ZYnx3sucrpZe32yo8PyZZY/5yY/wkLdd9mqxIzlEBw0NR4fjjvlZnNB62tM9pntM9pm5YSLzL+ZfzL+ZfwZuCr2E+eas1bcNWpmpR6PwUmL0fLEwFtWdVmcdtWba8sODZf0pl/Mv5l9XJQUExth7TPaZ7NVXLY7Yh/oXbJgxF3MRrICeGJuHjbBTRS0YasXt6p64ItgTXCX33bl+MAJjbD2me0z0pwjNDP2EYn8gmNry9CKlNue0CTZQlxuMtGYax8gmNsPaZ7TPZ0mBjX8y/mX8yz22hTwEHEk8VAVjMaqStdJJhF+DEJjeYJxXbN5yUd/mhn7CMT+QRub7bi/pTL+ZfS7U7Zlhxiy7JKv63ReRN1OfTHo/y2RXu9hwuxoQToh6piRVk7qzOAW/ikQF/WFK7uFj0biZPMI8A354DsiqMXqX4cPrY1fRiAWI4O/gV8RX++B8bpNys/sE+09yvN+L+lMv5l/D7p0NYAmNsPaXLNIb+thNCjj95llXYw5VDjhacXrktisem9TWP1C/m27DTcBco0h7TZrMKUbKitVydPVwk50S5F1CyH4Vk1EdL43kE9ohSPOqRVjTPaZ7TPZ0mBjX8y/mX8ywx/0zM59Q7lG4O/sYwDUbsn8ksb8X8AR3BF1WcFlxy9eJDg6Bcoo6oHde9eXYaK5b03O9TfdzKzKx13l/D4CHqc6Ziqgim6mQy6a2PhdLP4lD6mKQkT+QTG2HpThGaGfsIxP5BOs9CojJEJRZ+QURth7TPaZ7TNywkXmX8y/mX8y/mX8y/mX8y/mX8y/mX8y+rkoKCY2w9pntM9pntM9pntM9pntM9pntM9KcIzQz9hGJ/IJjbD2me0z2me0z2me0z2melOEZoZ+wjE/kExth7TPaZ7TPaZ7TPaZ7TPSnCM0M/YRifyCY2w9pntM9pntM9pntM9pnpTb15W1bzBpNlxu16P6DQaDQaDQaDQaDQaDQaDQaDQaDQaDQaDQaDQaDQaDQaDQaDQaDQaDQaDQaDQaDQaAnAA5Z2o9W6LWX0p5wPX8Yu7rzQvFEr8emZOf8ur6UOz2fgX3zj3kkGXQB+wEQAADO/yVNs3NshCw0fmIaxAuXMSESlxQACZogsAALoAAMgoABTDgAHSUAAphwV15p22KB6fLFesZFapC31xd33RAHn0zw3GZZYI1OBnVW4VUM9+P8eFdvdZYFz5/S6Jg8sJ374E477+3rfpT3eFD4l43yeuG6nZPZiF6p9bcSKFh8zGp1I3lLCAWf5IotnCRmo+wXXegKq9HvPOoEHu2EqI1x0D86lb4qt62Qy/EqS/DUiG2sF50BzhqaLKgLZmr1OYD6KIe5mFRsw4OIstmd9cFc7bvFRU2j/xhVIJzHhZNvdDS5uOZzlJ6gi+FGZyAzO2MlDGo7XAfFeYl0Kt5kWU5vanELKVGsUNcR7LnOww6I0poSQvfxPOCOikDhGA2xIb2EoRydDYqKypJ8+Ewf9Db/MDeVHYj9rete4qE0H0xjsndErsMsxmisnexP58hrf66A8tdFjtHoVVkQ2YZSHXSmvo7FhAalgDm7/8NG91g1is/8lg5tUmMgqpZayd63gdiwhTJJmlqzlHLOxtf0Rqg0v5W5LoDATdB+EQfwvc9HOVnZHriyLsO5PieMFPtn9C60PRDGxBoWzaIQySbTmGIlFhpRQBy1DqBe7fXsOag/+ImCLpLXo9i0FmX8aPe2So3dSlzjK8CTsnxSsD5aOfSu2vIELc/6GEBUQoHFIBJmj58GwTq6mHUiv8YEaQ4jDhWyai3mBW2rB4i9sNpvZx/K32N7VxluxkvFU9RA8pc/8PlQLpTe74UBuTOjVxMzQdCvZXcAzUjgPL4NC8Yl+kKJepafjf+siS+lHB/YXeU5hxIwQFf3gG3iBlnFH3R29duCU/BborMmqY5REzaIvnwDDQnv9D/lu63l4fUr+p4aehAwyibXVCvV0GJOjoHEgp/wkM9g2hZM2kPBXvBwSxXkI+z7m9IAUKt3fLZ9Yp6oKbD6WFxGNX0A1nEgPCiREDb/4OLvmxYpyfdtxoGVqU35u4b+Vhjb8ViKi5GGB2uGJ9C4l6Cqt7c0umxvQBCUHaFHuehgJH27fbH0aCynDK7rygGDyMsZ1MXYEqQi3tVupuY21crRuqo6ksafqgp0j7/g9BBMrXSNYN3OirmSZZSQk5ldB7hhyvAqbGENiwRv4+rFosYd+uZ5IBWEK+nENVX9wW4OM0XhmsiYDZ1mIk4Z5Bzigg00IFe2j7F/QzwjmUqYeW7oub2Vqqcsj4QeXQgxpL67dTqiANynnQAMgoaLg2fWB0oRbw4ExWq4QGlzBdElQFyuq34nkgN/JI+CucGIHhaY9GmWGPKybj1VPH8ogiBKHeal+Zm8N74UZ36rxwO4lPfq7FhQaiHI1kd+WVRYZCcvEK1/6cpUIJEXA4hctWZZL+PHRLsnU/Lj4hk8jOHU1zEMp3kp46jZSvup8AiAf99r5RZR9/WNGzp8nxbafVGPdNNDfVXmEngQz8ZsFcmH/GMgkYmMJQI1sNaY7fRV1LbHZyLu+91CKTbf9DLN36N88FF03jXSaK7nQ7/hHxRCZtEkJ9sgG5LnV0+jyTuu1W+Su2Y+HUiqq/Rv7HtUdeVQyRliuWyu96IdN0mgrhCp7Oo11xVTVOFoUA3Cg9MpFMqzXHHryUj8nenEVwLd3O2NE3CvFQtxPV7mvcrOBOwtCIS6qkqo6weZUbs+l2Uz2xVOu9vfffAjXauWQeXn5dYHE8DZo/JM0A5ZdvjYgD1nCgc7ePu4VCUy+e1TSZlH/TZiMYvpZ2jCHjOnoWsXM/N7dj1nvotlSJ8lp+pfDjo1lcy5aHbEbkTUAybGfDPdjRH+PeitVNIlYVLMfJIBVI6vVrOakskXeK99rWlb5roGtBu//LjCRW57XpxJXHwh8jZAkC/NZhAShsKkTfbXOFn0CE+JFn+NwlldBOsaIKC599A92wxyDdtvBtCR/72sG61sQNRz2uLDVS2ea8w4PjdxRvUcFjivSJ8ETpyy73DaL0nzVRNbJE5JfnYoffTfwow4qM/QjTNzF6+UsALccCIwUSbZFbqqyxYcFauhRyykEjwru5VurApKGoZQAh9bKc8HxiLppVeHerfBmM9w6HVjV/bBvj/jHXuPdBIf1j5rgVHbGBUod/jAn6dcPo4hTzYCZR+m5irGYEFX8k3s3Oom6bEzyIwhz1JBcyFz44OoDYBcDhVM8odnRFdKylCl7aI6sPXV/yyjBu73UL8QtxxOgY6Ohh11N+3t5h8T7nTr/fEO4OPgt7B2WMXHxxfKEMEV5kfBVCGlcitmDKHVLoJNMln47CBlSpHQ/N3kxeommBeRykzQHiOaevDv63hX5+lb4I6JBsGEDQBuwtVVnihgeD+3G8fkoiMn+aSuuN3IyzH9El4YrTo0PPuHJOUfJBlhNTqWGO+f+LbMJWk3ZJ2672cvVYoYWDMPbqAKdT8arBu2hvZF4dhMDFDcd5XRT8DHz2P4PPVPeq7+qoXFXIHWUDTWyBGZD9JW0FFvBenf+GNL/JJRyVTMyBdEl1aX7iYfIW/YiR3mc7LF8VxePyd7zty1cLfvM81cKzUw7napbc6KZohT52MgYQWkjuNY5joOvs8UKEUCqemLZuP/fLhn+4tsup32mAfhVZURoNF8G7iUnLD1AHZv8LdBWjm4+VALBuf4nnMG0Q4OHK6vwFKHKJv7dc6ExUofapPdvwXIQyZhqA9l24GSJTxRu7PQPJwt9EPgA6KH2HyUsq0uLjEP+5KrgAFHG4FEcoVXt6Yhmie5RSG/2U4Z6m+J2EyzXnIh5lm7RVaO1Riq+Q8imO4joEH1R2g3J7nv+M8/7Us6lIgM39j3DOJRCrlY1L5ZPL0NQHhZOrF+4lo3f6LpW0q6rJ3RjKQU3y4wfeUpMBN5JDec9mC4GJz9nkBdZRj9KwD/QhppTNNY8gkN1zenSv74Ka7AmLEpooMM1ztp6ynJyG1e+yfv4KmcLLch0TaU1ziKONls933py94OP4+lmPX4ZFbGVSRjmxOeqY8NhffRZQap6ZdOvVuefT19zGLCFWlPRrc9U1evIkvB0fkCmlZQMguIPtlkZb1eBr6LtqSSm3POpxSkGA8s7y/axIjJnheU7nJBNmxhvh90x9zg6yhZANK84wUKLaloKyaEEaTaLnOrElhfo1wSMddluZi0pSa3laQNFhM544LLH5yF+FoiB42JwqBmtil2Zg+gTZ3iOQK/XP/Uz8UdiUgIfd0G2i4TJnu5GGSNUTR51rqcy7UyJZXriSkFvIi5SABw96mYXQQZcGr1wcx52UmcmWXDhC3IjDYQhm+h7FaD8P5PnGZO4Db+dVJ319pqxp3EqQ+fHGopUmAC5nT+11iWokGwJF7QAOwvsUSEgpX4gBvLh4NaD4ZGOVvfD9KM51wFrRazZeTpqYOdvG1UkKU0TASepLrWG9e+mi20/3MYBT6781xT+vpVPlGFc+xFRAXZJ8nMRDyHIKsqoKQfL8kKTeNw1kASxXpgFuODtKpLTnxYF93OcCBGi1tCBN7InBh/VL7q7/iq9GITtDUfaU0OnbYiha5DTHMNchiI0oJAfdSA382WQQdGOzdgoGM81TGEF5KLqgi7+Z5yJEYkN9brXQpIcCrxbIz1/pU/zHPcD1Jr3cpc+1dI0YfgK3gzu3FmxQg8rm02DtyO86T+JAwGHTtFVFdgnD1jCmOgVK73RffInKx3XgedaEo+FIu/Lm51VpM8w6LE2+fUxHqNlxHVfLHrNamkGRULKL3kWv9o5AIofA794TBxIWUobJYQ6267jDDpONUI5cq4qcGvEQX4ibnc4wBM84VNehiv0uh2AuzcennY8mBd6LU6B873VlpKI4aFMEpUhbXHR6F3L5l/WA0aXwZzRfDvwEdx6lAbgW9bjB0Lk5H6qpMmtoCiHDbE6z29VpDDuBCj5JIj7p1EfVdN8vLjr+VSvlrXUOL/GIqj05yuNxhOIvxmCjyCP2t0lBvDSGcwOIl3P2JzjM+pOQqqQyppBShP6PhN0Rte+eO0ZykaODps373ea9NVYmMxUUnhNbf+8p5d4K7DJ1i0OLRfDbN7NKV+YE0EcK0wguJL8pQqSQYBXtkhiKzNz08WA+UQjTwOXEnL+RXnapr7wJzzEW2K99JlOfdlqRaZVr2RmqT+d63LpjWj2MIpbLBbKQq/H0+5nDdPzeKKR65H8AOq12KEqPUlQ1vZ2AGB3LESn7LHWtbbvUCvh2wBccZ4q4c0hstr0nUfG/d+NvHceibh8Vpzx+U3ZWX55I40llUqgTBgXOeh8faIzRoSn2li7qwhfvO0FLmJOlLkWBwXEZ45oiBF++DfISmfuwupI9l36Dz/ZARiDUqEPv7CerP54U6EtGOlJQ2ZZmmUUU9ttiW4DboxQDAaS/G70vgj7e/2NBCm7jTRxD2AEOwIixGHqx8M3bIECMS4bCr7FDJ49qzt2xVgjxxWDIxfQYPFAM7gQA46LLWJwuhKE7kOqNhDKwjcX8eACZOdoJMgeBdQWweq+g26wprGREq49L9qdsr1mc/rJQ2vq6RvZmgkI9GjMgm2dRoKRAbzY+TzmAVC+IGQXgmdPwe6LpHC7Gbr/LYr56xb1QVAH/wOyIRnSKwSdTpIOe/mbfA1CQ5I7qvm4pgZrip7D4uramghZftt7OkyJflA+zORZgmrCnrEcf8fv31UcTzueGYqbUtEbtuG+xcmslUFaRoPAG2PDi9RtlCVqMZQkTbzcfZ/X5QiuY+GAWypivLiSQEsAvpNdtqrtZV5Qh+K/k92HGqzejtd8CETzCuZ359KO7P4ZTvgah5ws99QdKiBkjp16tzvPUoa3yjYasTEDdJho0ZyS959Ans7Kj0w+7QEn/zLeflP6G5y2ODe5iOPrWzkLzZWJDI42xKpDS+fd8B+cH0TaLkQBZq42PzpMkZ/xVzs3sMMr/Kb3OeswAphxmEY9soanjL3q+qhJzJrOOkDmZGApV3SbonbciNtT751Y32CdehsmfAOMX2pwTpHtAHI5i5Bc61m+WYBAQYr07yOnbuEgwNnHF/TF4a8gp3klkUXNMJ5lItk8WWFq9iUB36RtuLFmzFj7ga7Yu8f+U7DzAdIHNEQntJZYlAoQ6ITbYo9Lj7bl41mxgQEPjcfw2aNoBrgnPhlQJcfXo7L8WcbnlHWsPLv6D041L/vvgKvbdeTgCSzXLetCrQ+v9lvk/U0ymPPQTsqLf2sVy6osAO9zJiaLtGmourMdbu26TSa7KNpQ9xQSY0UhfxTw+exsa3psGyPi9RnAeqbLGfY8f+M2EQ/O/qLLqUbwTp06VQzkn21/PWzji4TZYVZkQLlgEeebod/Gu9dNyHZA3u1L1ot2/1mKsmoUNa8hTX5vEqNyH7vVFcnuyBKiKol7gfbPEAsiE+T9pu+Dc1m6tkFGE/vQucpTKNKe4VNxTKfqQsozSRY9O+aJnCWhFHBPjNegkDjMdZV0/3JIjeAsYB3lB+ATwWGk+sAD9VtD4YJntJZVTTeqvNcjOAESwdtyt+vvXwsEqALbpKIrHuPUIq1D4eJNmwAEhdhBqxaqVIrWjkaSBh0qqIcQ4/LHyfFe8b0i5Qd+wIPyhoyHwDqGqjAeTJ+D7uPpOFfpQr+EBava9a5gEK/XBvs4H1X57alG3m1kj5AUpM6ZU+OHeUKtoQBFj5jdlJl5HCjcVlVIlQpp1wGAdWHWPY9eiT93gqynjwl7v89nsHOU3pFDFYX+D0YTGwyoW1DC4e2royy80491X30tYXaVTgWEIJnGnqRaaCPzlf8T2ut0+dn6rT8QM4yPwXE4BQ5hiAGnXrnNbz9Vr7xRPx9bzH4Ufa6ONsDMIseFQfrzdyjEnbp5VBA+jDbP1XFd19p4Lq38htz8T1It6pjIruFtV+w8y5PI8DVa1YuAUEhEDnQePBIjFWPi9ez1W2nmwF5KZYsn9d04paQcb6tYceHK2SXSc6on7OSJLOxFN6xR+qYngVsXyrTRv7AS/WNXASCTvJEfhvY8j36w1P90cKoxe44kUAELSyMUnft68FvGJ6ZWrqvQoQYk5kco+ShZIsIiShRAfLpZ6Xy67iPWEiukt+N/OpU4S9Kq0c2Em2UcPWSkf6LYsUcgqxTZ+RfZ34ydvp0XrsOPtrrAc35S8s/MgMgdsuAPn2lg9VQWlf1zfYClaUXtjHPkNmMhTR/lwaQ6GQLj0uV7MWmm/Q4zCGaaxKOKf+nJX4m5chZXcr4Tb6fE1aP8LTkGpmCQcOO11M/xhI/KHRgP1i0w/usBxba9ccHVc22zT+e9E17tkEM9smFoyFfz5suvu4JK/378Ft0ByroTN53LgjLpTdOxXUwP8lrinIUDKPBx7H/u5aI3A5osSEAVAWrbzuGKGpbmXTn1kdjOR+BkJemTiZCZjpBkQPvXXnLft0t/w8Fn1WqGyopoin143t4dKydtg6wtp8zmUmzjgNOe1Cz7jxgNIODz5Nt6g7YN3XKhgIVpmWvzbrA1EGz8gf2pNNjeOf0NMInVRD/8dsmaliPeRlm1kc1q0NWRVM37w40s7A3jmOfOWlikG2539N+dghFv/GP/Lku+TT7Y8Ji0Kzr5fltZyeqU0kJAy9nAwL6YNZHEHMDC2YbLxHiB1pBnnaiG93rrj1Frjdqg5jcAdaJid+cRjU9MdtREhywA9g6ZaePsvoraChlPuvdgKY6GkDVHsRZMuglw8c0qfHwc1a0yF5PaS/QjEy7Lxf6uOrC3gSo2eQ4PbnR0a//aSh4xUMgoofoC8RexnzlGMtEbh6OdX8yiPLmGg0PJN8vHdcJGWXIrkymQ7IymqXVrSge88rUbzJt3iSRcVq8bfBrq1T0h/qX/N3V2qmbZ/4Eb4TEv8CxYS73zVqpLnOMbrQ0HTDuKxsudMZXN1Wrfl7doBrMxgLbidDJdi/OMUXNwf0eNIqrZ+PN3ZTwnw7rWkbM3FI78EZR0VYvUcyaXAufFMq2t7lDSdXyrGbpmrGeN308CaLVB5HapcSrhYZKkU1ELIINeci3AiQsRhRX/lgCyFr7Tq5z134fEBN2TfpGI30ClHdlAP/Kl4Pl1+he+3F9+FlwOtHOd3sDc4A03xVTNGGQUQWowey1cNbI0xQOry1LmmEaBbQbyvMY5KeYcwXkWzCcx9wgXzXh5+oArtfvRDYVJHh8z4CMGcHh75L++FSRGe685b9u5wHpL4wnh3y2rvX6DEr4fDeFWRXN+bdMaWWn5s3QPOwXieWglMr+vbVK9NAlAEHISYYLuGWLU46PzslJ8off14kFXisYQ1bXeLKt90DRweKs+Y9eNeVoqGmQqa7l9DefAX16Uz0K9D7sYvrpk4ZPTdpAYPrJAeOEXbSGfH8Nn/etLdm7J75PVk+KcNHC1+PDfo0q4rTGXVYaBx1/55p2y1ndEX/U31TTO76EnN8mqVhsTrJk0MWojpn5FJIv9nm5kp3HRqICipB0/FGgjOW6e5sOEQagXPu6Vi8b4iZKZSP23OO3Hg54aQWcwRg1YJ+eO4FCwJKcbaWpY4/8gWP9apNSsJADxgftH/NUZy10y1Wixzxl/WfRjuDN3trz8J9HCRaE30Uudge+PNswAjm0f9g56nSoYuc/mCf5lyTmwrPSy5wC+JZLBN0ScFj64+PMh0pHc0VZZUfzdG/L0w0003Sv/6Tr/RrHJMQiCC+rk5oRaCuVHccY37MsbyzeVhHJVqUGHKp721GQx6Yx0abThNHs8JiflbpJ9v/tZkyMjmOopcUnYqoIhkmBCLl+u49ahEpF+9xXdYRVCXxcgXBxGNBWg+jzsttWDyiVsuA1F0KrzljnSajQX8xX5EbvBNOBxKi7eli9nEHd3VypEo3QzOi7zK9XoaJWKc+r2BcsZnCLWtNNxtZzi52XqynuAIFx+0/RBHedJ69ENMEduPkkBQk1BS/o5PNKwj6+QEiNxSeg3hD4K4MtQg5fTHAkI8Zbfu5DZMhm9omn/HSFfee6zb4rcKPsIx2uJeXS3nJHBswKigIdN4PZLBsEUqrxF5qfAa0z0b+WdTaLVIuue4VCgsiwwFUFkTO7lr1c59/DxsUDCUWpMLuz0DThEFzsf+xLzgKIw82+QRCcyneZtznFmUt9feULFKNp1b6sAwgXTofFpGkSc/n/74cDG5RsImuXMZ638c/O0dWu5klyaxO5yg1pPMII7zhQ/hq07jikXFLXeM0x4xj0TBqmZOI9aIlBrNwRVdxaIQ4seTkjf24OYj0w8MmERzqrbbMhNOXiQ6+UeeVLP5Hc3NwIBK2R/nsy+7ptcvIV+uS1O/uCKdrzkqu2vIm7lY6jZ81fUOrRU02QKuD0OrDrMRr/8qkYAb/XgcuYgDr0kyXm1AGQAcxu9jFm+oeJYFl0TwY9VpsrN3bJ0eHSH3t54ox/YvGyELevNXRgiYiYL5HgN2/pjlupL7qstgha/gcCkpUpvjwIpWLLH19w3JgAvaUPNxADXfsfIRWMiNwWYJZdILKgGdRclaSPkOg84DpfjLE1QiW/Og3rt8V7AemHXREetxioV0k0/bxuw5iKd1I8pclHzMplhQNWLWKXFHlBdgT0TgUt4Fv9DySHz0aVKbLQttBP8d7EHipznRNKlQkyLlEGak8RM6mrpj549NkMih2IAvGKSnahCIhbjorPGnr7aciRYaOs8uBmFfbbD96HEYSLApkzCJFL1nObTgYhFAj9625vsUvhOTDqPi+qs5qrSIb3rQF+743gUaItJnT6gZwk8QKeasnM5bTVd2cn+wyb+V8UhBj9uynWaeCAT3JnQWJvFZoN/vgutlKNDPkmjIl1aNcikWfMaPmnY9rFOQUmz58xXRT97rML2PmPZa5Vf3DYaa/LWjE0Rd8UHKYQ/jrHIKDy/JOfbgyB3ZdXjJ4K9ccOdD+HorpcG/iFMeEyrZanh/s+5MD0fZ5sFyOAAAAAAAAAhhwADpKAAUw4AB0lAAKYcAA6UGFu/xX/7jmZGccevZrXqa8CVwDXg7cb2U4FZjUpoVZjUpoVZjUpoVZjUpoVZjUpoVZjUpoVZjUpoVZjUOYLBYLBYLBYLBYLBYLBYLBYLBYLBYLBYLBYLBYLBYLBYLBYLEuRwAAAA=;" vertex="1" parent="1">
          <mxGeometry x="660" y="-220" width="184.45" height="115" as="geometry" />
        </mxCell>
        <mxCell id="MI_O_WjOlExlFQBH1zT7-70" value="6" style="ellipse;whiteSpace=wrap;html=1;aspect=fixed;strokeWidth=2;fontFamily=Tahoma;spacingBottom=4;spacingRight=2;strokeColor=#d3d3d3;" vertex="1" parent="1">
          <mxGeometry x="700" y="-70" width="30" height="30" as="geometry" />
        </mxCell>
        <mxCell id="MI_O_WjOlExlFQBH1zT7-81" style="edgeStyle=orthogonalEdgeStyle;rounded=0;orthogonalLoop=1;jettySize=auto;html=1;entryX=0.5;entryY=1;entryDx=0;entryDy=0;" edge="1" parent="1" source="MI_O_WjOlExlFQBH1zT7-23" target="MI_O_WjOlExlFQBH1zT7-25">
          <mxGeometry relative="1" as="geometry" />
        </mxCell>
        <mxCell id="MI_O_WjOlExlFQBH1zT7-101" style="edgeStyle=orthogonalEdgeStyle;rounded=0;orthogonalLoop=1;jettySize=auto;html=1;entryX=0;entryY=0.5;entryDx=0;entryDy=0;" edge="1" parent="1" source="MI_O_WjOlExlFQBH1zT7-53" target="MI_O_WjOlExlFQBH1zT7-25">
          <mxGeometry relative="1" as="geometry">
            <Array as="points">
              <mxPoint x="467" y="-163" />
            </Array>
          </mxGeometry>
        </mxCell>
        <mxCell id="MI_O_WjOlExlFQBH1zT7-104" style="edgeStyle=orthogonalEdgeStyle;rounded=0;orthogonalLoop=1;jettySize=auto;html=1;entryX=1;entryY=0.5;entryDx=0;entryDy=0;" edge="1" parent="1" source="MI_O_WjOlExlFQBH1zT7-24" target="MI_O_WjOlExlFQBH1zT7-25">
          <mxGeometry relative="1" as="geometry">
            <Array as="points">
              <mxPoint x="940" y="-163" />
            </Array>
          </mxGeometry>
        </mxCell>
        <mxCell id="MI_O_WjOlExlFQBH1zT7-105" value="4" style="ellipse;whiteSpace=wrap;html=1;aspect=fixed;strokeWidth=2;fontFamily=Tahoma;spacingBottom=4;spacingRight=2;strokeColor=#d3d3d3;" vertex="1" parent="1">
          <mxGeometry x="480" y="-70" width="30" height="30" as="geometry" />
        </mxCell>
      </root>
    </mxGraphModel>
  </diagram>
</mxfile>
